<svg xmlns="http://www.w3.org/2000/svg" viewBox="0 0 200 200" width="200" height="200">
  <defs>
    <linearGradient id="ihramGradient" x1="0%" y1="0%" x2="100%" y2="100%">
      <stop offset="0%" style="stop-color:#FFFFFF;stop-opacity:1" />
      <stop offset="100%" style="stop-color:#F5F5F5;stop-opacity:1" />
    </linearGradient>
    <linearGradient id="skyGradient" x1="0%" y1="0%" x2="100%" y2="100%">
      <stop offset="0%" style="stop-color:#87CEEB;stop-opacity:1" />
      <stop offset="100%" style="stop-color:#4682B4;stop-opacity:1" />
    </linearGradient>
  </defs>
  
  <!-- Fond -->
  <rect width="200" height="200" fill="url(#skyGradient)"/>
  
  <!-- Sol -->
  <rect x="0" y="160" width="200" height="40" fill="#DEB887"/>
  
  <!-- Pèlerin 1 (au centre) -->
  <circle cx="100" cy="120" r="15" fill="#FFE4B5"/> <!-- Tête -->
  <rect x="85" y="135" width="30" height="25" fill="url(#ihramGradient)" stroke="#D3D3D3" stroke-width="1"/> <!-- Ihram -->
  <rect x="90" y="160" width="20" height="25" fill="#8B4513"/> <!-- Jambes -->
  
  <!-- Pèlerin 2 (à gauche) -->
  <circle cx="60" cy="125" r="12" fill="#FFE4B5"/> <!-- Tête -->
  <rect x="48" y="137" width="24" height="20" fill="url(#ihramGradient)" stroke="#D3D3D3" stroke-width="1"/> <!-- Ihram -->
  <rect x="52" y="157" width="16" height="20" fill="#8B4513"/> <!-- Jambes -->
  
  <!-- Pèlerin 3 (à droite) -->
  <circle cx="140" cy="125" r="12" fill="#FFE4B5"/> <!-- Tête -->
  <rect x="128" y="137" width="24" height="20" fill="url(#ihramGradient)" stroke="#D3D3D3" stroke-width="1"/> <!-- Ihram -->
  <rect x="132" y="157" width="16" height="20" fill="#8B4513"/> <!-- Jambes -->
  
  <!-- Pèlerin 4 (en arrière-plan) -->
  <circle cx="80" cy="130" r="10" fill="#FFE4B5"/> <!-- Tête -->
  <rect x="70" y="140" width="20" height="15" fill="url(#ihramGradient)" stroke="#D3D3D3" stroke-width="1"/> <!-- Ihram -->
  <rect x="73" y="155" width="14" height="15" fill="#8B4513"/> <!-- Jambes -->
  
  <!-- Pèlerin 5 (en arrière-plan) -->
  <circle cx="120" cy="130" r="10" fill="#FFE4B5"/> <!-- Tête -->
  <rect x="110" y="140" width="20" height="15" fill="url(#ihramGradient)" stroke="#D3D3D3" stroke-width="1"/> <!-- Ihram -->
  <rect x="113" y="155" width="14" height="15" fill="#8B4513"/> <!-- Jambes -->
  
  <!-- Étoiles décoratives -->
  <polygon points="30,30 32,35 37,35 33,38 35,43 30,40 25,43 27,38 23,35 28,35" fill="white"/>
  <polygon points="170,30 172,35 177,35 173,38 175,43 170,40 165,43 167,38 163,35 168,35" fill="white"/>
  <polygon points="100,20 102,25 107,25 103,28 105,33 100,30 95,33 97,28 93,25 98,25" fill="white"/>
  
  <!-- Nuages -->
  <ellipse cx="40" cy="40" rx="15" ry="8" fill="white" opacity="0.8"/>
  <ellipse cx="160" cy="50" rx="12" ry="6" fill="white" opacity="0.8"/>
  <ellipse cx="180" cy="30" rx="8" ry="4" fill="white" opacity="0.8"/>
</svg> 