<svg xmlns="http://www.w3.org/2000/svg" viewBox="0 0 1200 600" width="1200" height="600">
  <defs>
    <linearGradient id="overlay3" x1="0%" y1="0%" x2="0%" y2="100%">
      <stop offset="0%" style="stop-color:rgba(0,0,0,0.3);stop-opacity:1" />
      <stop offset="100%" style="stop-color:rgba(0,0,0,0.6);stop-opacity:1" />
    </linearGradient>
  </defs>
  
  <!-- Background - mosque exterior -->
  <rect width="1200" height="600" fill="#4682b4"/>
  
  <!-- Mosque building in background -->
  <rect x="100" y="150" width="1000" height="300" fill="#f5f5dc" opacity="0.9"/>
  <rect x="120" y="170" width="960" height="260" fill="#f5f5dc" opacity="0.8"/>
  
  <!-- Mosque entrance -->
  <rect x="500" y="200" width="200" height="150" fill="#8b4513" opacity="0.7"/>
  <rect x="520" y="220" width="160" height="110" fill="#d2691e" opacity="0.8"/>
  
  <!-- Minarets -->
  <rect x="200" y="100" width="25" height="200" fill="#f5f5dc" opacity="0.9"/>
  <rect x="975" y="100" width="25" height="200" fill="#f5f5dc" opacity="0.9"/>
  
  <!-- Ground level where pilgrims sit -->
  <rect x="0" y="450" width="1200" height="150" fill="#8fbc8f"/>
  
  <!-- Pilgrims sitting in rows (represented as small rectangles) -->
  <!-- First row -->
  <rect x="50" y="470" width="15" height="20" fill="white" opacity="0.8"/>
  <rect x="80" y="470" width="15" height="20" fill="white" opacity="0.8"/>
  <rect x="110" y="470" width="15" height="20" fill="white" opacity="0.8"/>
  <rect x="140" y="470" width="15" height="20" fill="white" opacity="0.8"/>
  <rect x="170" y="470" width="15" height="20" fill="white" opacity="0.8"/>
  <rect x="200" y="470" width="15" height="20" fill="white" opacity="0.8"/>
  <rect x="230" y="470" width="15" height="20" fill="white" opacity="0.8"/>
  <rect x="260" y="470" width="15" height="20" fill="white" opacity="0.8"/>
  <rect x="290" y="470" width="15" height="20" fill="white" opacity="0.8"/>
  <rect x="320" y="470" width="15" height="20" fill="white" opacity="0.8"/>
  <rect x="350" y="470" width="15" height="20" fill="white" opacity="0.8"/>
  <rect x="380" y="470" width="15" height="20" fill="white" opacity="0.8"/>
  <rect x="410" y="470" width="15" height="20" fill="white" opacity="0.8"/>
  <rect x="440" y="470" width="15" height="20" fill="white" opacity="0.8"/>
  <rect x="470" y="470" width="15" height="20" fill="white" opacity="0.8"/>
  <rect x="500" y="470" width="15" height="20" fill="white" opacity="0.8"/>
  <rect x="530" y="470" width="15" height="20" fill="white" opacity="0.8"/>
  <rect x="560" y="470" width="15" height="20" fill="white" opacity="0.8"/>
  <rect x="590" y="470" width="15" height="20" fill="white" opacity="0.8"/>
  <rect x="620" y="470" width="15" height="20" fill="white" opacity="0.8"/>
  <rect x="650" y="470" width="15" height="20" fill="white" opacity="0.8"/>
  <rect x="680" y="470" width="15" height="20" fill="white" opacity="0.8"/>
  <rect x="710" y="470" width="15" height="20" fill="white" opacity="0.8"/>
  <rect x="740" y="470" width="15" height="20" fill="white" opacity="0.8"/>
  <rect x="770" y="470" width="15" height="20" fill="white" opacity="0.8"/>
  <rect x="800" y="470" width="15" height="20" fill="white" opacity="0.8"/>
  <rect x="830" y="470" width="15" height="20" fill="white" opacity="0.8"/>
  <rect x="860" y="470" width="15" height="20" fill="white" opacity="0.8"/>
  <rect x="890" y="470" width="15" height="20" fill="white" opacity="0.8"/>
  <rect x="920" y="470" width="15" height="20" fill="white" opacity="0.8"/>
  <rect x="950" y="470" width="15" height="20" fill="white" opacity="0.8"/>
  <rect x="980" y="470" width="15" height="20" fill="white" opacity="0.8"/>
  <rect x="1010" y="470" width="15" height="20" fill="white" opacity="0.8"/>
  <rect x="1040" y="470" width="15" height="20" fill="white" opacity="0.8"/>
  <rect x="1070" y="470" width="15" height="20" fill="white" opacity="0.8"/>
  <rect x="1100" y="470" width="15" height="20" fill="white" opacity="0.8"/>
  <rect x="1130" y="470" width="15" height="20" fill="white" opacity="0.8"/>
  
  <!-- Second row -->
  <rect x="60" y="500" width="15" height="20" fill="white" opacity="0.7"/>
  <rect x="90" y="500" width="15" height="20" fill="white" opacity="0.7"/>
  <rect x="120" y="500" width="15" height="20" fill="white" opacity="0.7"/>
  <rect x="150" y="500" width="15" height="20" fill="white" opacity="0.7"/>
  <rect x="180" y="500" width="15" height="20" fill="white" opacity="0.7"/>
  <rect x="210" y="500" width="15" height="20" fill="white" opacity="0.7"/>
  <rect x="240" y="500" width="15" height="20" fill="white" opacity="0.7"/>
  <rect x="270" y="500" width="15" height="20" fill="white" opacity="0.7"/>
  <rect x="300" y="500" width="15" height="20" fill="white" opacity="0.7"/>
  <rect x="330" y="500" width="15" height="20" fill="white" opacity="0.7"/>
  <rect x="360" y="500" width="15" height="20" fill="white" opacity="0.7"/>
  <rect x="390" y="500" width="15" height="20" fill="white" opacity="0.7"/>
  <rect x="420" y="500" width="15" height="20" fill="white" opacity="0.7"/>
  <rect x="450" y="500" width="15" height="20" fill="white" opacity="0.7"/>
  <rect x="480" y="500" width="15" height="20" fill="white" opacity="0.7"/>
  <rect x="510" y="500" width="15" height="20" fill="white" opacity="0.7"/>
  <rect x="540" y="500" width="15" height="20" fill="white" opacity="0.7"/>
  <rect x="570" y="500" width="15" height="20" fill="white" opacity="0.7"/>
  <rect x="600" y="500" width="15" height="20" fill="white" opacity="0.7"/>
  <rect x="630" y="500" width="15" height="20" fill="white" opacity="0.7"/>
  <rect x="660" y="500" width="15" height="20" fill="white" opacity="0.7"/>
  <rect x="690" y="500" width="15" height="20" fill="white" opacity="0.7"/>
  <rect x="720" y="500" width="15" height="20" fill="white" opacity="0.7"/>
  <rect x="750" y="500" width="15" height="20" fill="white" opacity="0.7"/>
  <rect x="780" y="500" width="15" height="20" fill="white" opacity="0.7"/>
  <rect x="810" y="500" width="15" height="20" fill="white" opacity="0.7"/>
  <rect x="840" y="500" width="15" height="20" fill="white" opacity="0.7"/>
  <rect x="870" y="500" width="15" height="20" fill="white" opacity="0.7"/>
  <rect x="900" y="500" width="15" height="20" fill="white" opacity="0.7"/>
  <rect x="930" y="500" width="15" height="20" fill="white" opacity="0.7"/>
  <rect x="960" y="500" width="15" height="20" fill="white" opacity="0.7"/>
  <rect x="990" y="500" width="15" height="20" fill="white" opacity="0.7"/>
  <rect x="1020" y="500" width="15" height="20" fill="white" opacity="0.7"/>
  <rect x="1050" y="500" width="15" height="20" fill="white" opacity="0.7"/>
  <rect x="1080" y="500" width="15" height="20" fill="white" opacity="0.7"/>
  <rect x="1110" y="500" width="15" height="20" fill="white" opacity="0.7"/>
  
  <!-- Third row -->
  <rect x="70" y="530" width="15" height="20" fill="white" opacity="0.6"/>
  <rect x="100" y="530" width="15" height="20" fill="white" opacity="0.6"/>
  <rect x="130" y="530" width="15" height="20" fill="white" opacity="0.6"/>
  <rect x="160" y="530" width="15" height="20" fill="white" opacity="0.6"/>
  <rect x="190" y="530" width="15" height="20" fill="white" opacity="0.6"/>
  <rect x="220" y="530" width="15" height="20" fill="white" opacity="0.6"/>
  <rect x="250" y="530" width="15" height="20" fill="white" opacity="0.6"/>
  <rect x="280" y="530" width="15" height="20" fill="white" opacity="0.6"/>
  <rect x="310" y="530" width="15" height="20" fill="white" opacity="0.6"/>
  <rect x="340" y="530" width="15" height="20" fill="white" opacity="0.6"/>
  <rect x="370" y="530" width="15" height="20" fill="white" opacity="0.6"/>
  <rect x="400" y="530" width="15" height="20" fill="white" opacity="0.6"/>
  <rect x="430" y="530" width="15" height="20" fill="white" opacity="0.6"/>
  <rect x="460" y="530" width="15" height="20" fill="white" opacity="0.6"/>
  <rect x="490" y="530" width="15" height="20" fill="white" opacity="0.6"/>
  <rect x="520" y="530" width="15" height="20" fill="white" opacity="0.6"/>
  <rect x="550" y="530" width="15" height="20" fill="white" opacity="0.6"/>
  <rect x="580" y="530" width="15" height="20" fill="white" opacity="0.6"/>
  <rect x="610" y="530" width="15" height="20" fill="white" opacity="0.6"/>
  <rect x="640" y="530" width="15" height="20" fill="white" opacity="0.6"/>
  <rect x="670" y="530" width="15" height="20" fill="white" opacity="0.6"/>
  <rect x="700" y="530" width="15" height="20" fill="white" opacity="0.6"/>
  <rect x="730" y="530" width="15" height="20" fill="white" opacity="0.6"/>
  <rect x="760" y="530" width="15" height="20" fill="white" opacity="0.6"/>
  <rect x="790" y="530" width="15" height="20" fill="white" opacity="0.6"/>
  <rect x="820" y="530" width="15" height="20" fill="white" opacity="0.6"/>
  <rect x="850" y="530" width="15" height="20" fill="white" opacity="0.6"/>
  <rect x="880" y="530" width="15" height="20" fill="white" opacity="0.6"/>
  <rect x="910" y="530" width="15" height="20" fill="white" opacity="0.6"/>
  <rect x="940" y="530" width="15" height="20" fill="white" opacity="0.6"/>
  <rect x="970" y="530" width="15" height="20" fill="white" opacity="0.6"/>
  <rect x="1000" y="530" width="15" height="20" fill="white" opacity="0.6"/>
  <rect x="1030" y="530" width="15" height="20" fill="white" opacity="0.6"/>
  <rect x="1060" y="530" width="15" height="20" fill="white" opacity="0.6"/>
  <rect x="1090" y="530" width="15" height="20" fill="white" opacity="0.6"/>
  <rect x="1120" y="530" width="15" height="20" fill="white" opacity="0.6"/>
  
  <!-- Overlay for text readability -->
  <rect width="1200" height="600" fill="url(#overlay3)"/>
</svg> 