<svg viewBox="0 0 1200 800" xmlns="http://www.w3.org/2000/svg">
  <!-- Ciel désertique -->
  <defs>
    <linearGradient id="skyGradient4" x1="0%" y1="0%" x2="0%" y2="100%">
      <stop offset="0%" style="stop-color:#87CEEB;stop-opacity:1" />
      <stop offset="100%" style="stop-color:#F0E68C;stop-opacity:1" />
    </linearGradient>
    <linearGradient id="mountainGradient" x1="0%" y1="0%" x2="0%" y2="100%">
      <stop offset="0%" style="stop-color:#8B7355;stop-opacity:1" />
      <stop offset="100%" style="stop-color:#654321;stop-opacity:1" />
    </linearGradient>
    <linearGradient id="desertGradient" x1="0%" y1="0%" x2="0%" y2="100%">
      <stop offset="0%" style="stop-color:#F4A460;stop-opacity:1" />
      <stop offset="100%" style="stop-color:#DEB887;stop-opacity:1" />
    </linearGradient>
  </defs>
  
  <!-- Ciel -->
  <rect width="1200" height="800" fill="url(#skyGradient4)"/>
  
  <!-- Soleil -->
  <circle cx="1000" cy="120" r="50" fill="#FFD700" opacity="0.9"/>
  <g fill="#FFD700" opacity="0.3">
    <line x1="1000" y1="70" x2="1000" y2="30" stroke="#FFD700" stroke-width="3"/>
    <line x1="1000" y1="170" x2="1000" y2="210" stroke="#FFD700" stroke-width="3"/>
    <line x1="950" y1="120" x2="910" y2="120" stroke="#FFD700" stroke-width="3"/>
    <line x1="1050" y1="120" x2="1090" y2="120" stroke="#FFD700" stroke-width="3"/>
  </g>
  
  <!-- Mont Arafat -->
  <polygon points="300,600 600,200 900,600" fill="url(#mountainGradient)" stroke="#654321" stroke-width="2"/>
  
  <!-- Détails de la montagne -->
  <polygon points="400,500 550,300 700,500" fill="#A0522D" opacity="0.7"/>
  <polygon points="350,550 450,400 550,550" fill="#8B4513" opacity="0.5"/>
  
  <!-- Sol désertique -->
  <rect x="0" y="600" width="1200" height="200" fill="url(#desertGradient)"/>
  
  <!-- Dunes de sable -->
  <path d="M 0,650 Q 150,620 300,650 Q 450,680 600,650 Q 750,620 900,650 Q 1050,680 1200,650 L 1200,800 L 0,800 Z" fill="#F4A460" opacity="0.8"/>
  
  <!-- Tentes des pèlerins -->
  <g>
    <!-- Tente 1 -->
    <polygon points="100,700 150,650 200,700" fill="#F5F5DC" stroke="#DDD" stroke-width="2"/>
    <line x1="150" y1="650" x2="150" y2="700" stroke="#8B4513" stroke-width="3"/>
    
    <!-- Tente 2 -->
    <polygon points="250,710 300,660 350,710" fill="#F0F8FF" stroke="#DDD" stroke-width="2"/>
    <line x1="300" y1="660" x2="300" y2="710" stroke="#8B4513" stroke-width="3"/>
    
    <!-- Tente 3 -->
    <polygon points="950,720 1000,670 1050,720" fill="#FFF8DC" stroke="#DDD" stroke-width="2"/>
    <line x1="1000" y1="670" x2="1000" y2="720" stroke="#8B4513" stroke-width="3"/>
    
    <!-- Tente 4 -->
    <polygon points="1100,710 1150,660 1200,710" fill="#F5F5DC" stroke="#DDD" stroke-width="2"/>
    <line x1="1150" y1="660" x2="1150" y2="710" stroke="#8B4513" stroke-width="3"/>
  </g>
  
  <!-- Groupes de pèlerins -->
  <g fill="#2C3E50" opacity="0.7">
    <!-- Groupe 1 -->
    <circle cx="80" cy="730" r="5"/>
    <rect x="77" y="735" width="6" height="12"/>
    <circle cx="95" cy="728" r="4"/>
    <rect x="93" y="732" width="4" height="10"/>
    <circle cx="110" cy="732" r="5"/>
    <rect x="107" y="737" width="6" height="12"/>
    
    <!-- Groupe 2 -->
    <circle cx="500" cy="720" r="5"/>
    <rect x="497" y="725" width="6" height="12"/>
    <circle cx="515" cy="722" r="4"/>
    <rect x="513" y="726" width="4" height="10"/>
    <circle cx="485" cy="725" r="4"/>
    <rect x="483" y="729" width="4" height="10"/>
    
    <!-- Groupe 3 -->
    <circle cx="800" cy="740" r="5"/>
    <rect x="797" y="745" width="6" height="12"/>
    <circle cx="815" cy="738" r="4"/>
    <rect x="813" y="742" width="4" height="10"/>
  </g>
  
  <!-- Végétation clairsemée -->
  <g fill="#228B22" opacity="0.6">
    <ellipse cx="400" cy="680" rx="8" ry="15"/>
    <ellipse cx="405" cy="685" rx="6" ry="12"/>
    
    <ellipse cx="750" cy="690" rx="10" ry="18"/>
    <ellipse cx="755" cy="695" rx="7" ry="14"/>
    
    <ellipse cx="1080" cy="680" rx="9" ry="16"/>
    <ellipse cx="1085" cy="685" rx="6" ry="13"/>
  </g>
  
  <!-- Nuages dans le ciel -->
  <g fill="white" opacity="0.7">
    <ellipse cx="200" cy="150" rx="50" ry="25"/>
    <ellipse cx="220" cy="160" rx="35" ry="18"/>
    <ellipse cx="180" cy="160" rx="30" ry="15"/>
    
    <ellipse cx="700" cy="100" rx="40" ry="20"/>
    <ellipse cx="720" cy="110" rx="25" ry="12"/>
    <ellipse cx="680" cy="110" rx="20" ry="10"/>
  </g>
  
  <!-- Rochers sur la montagne -->
  <g fill="#696969">
    <ellipse cx="450" cy="400" rx="20" ry="12"/>
    <ellipse cx="650" cy="350" rx="15" ry="10"/>
    <ellipse cx="550" cy="480" rx="25" ry="15"/>
  </g>
</svg>
